<svg xmlns="http://www.w3.org/2000/svg" width="601.754" height="506.278" viewBox="0 0 601.754 506.278"><defs><style>.a{fill:#fff4eb;}.b{fill:#f9d3cf;}.c{fill:#68a3fd;}.d{fill:#e08079;}.e{fill:#f99f95;}.f{fill:#b3f4ed;}.g{fill:#aa7cfb;}.h{fill:#fff;}.i{fill:#9de0dc;}.j{fill:#b8d786;}.k,.w{fill:#124577;}.l{fill:#e3f9b7;}.m{fill:#404040;}.n{fill:#144c8e;}.o{fill:#edbab9;}.p{fill:#a4a4a5;}.q{fill:#e98170;}.r{fill:#f7be74;}.s{fill:#ffcd9f;}.t{fill:#007058;}.u{fill:#ffcc94;}.v{fill:#008074;}.w{opacity:0.82;}.x{fill:#144575;}.y{fill:#b7b7b7;}.z{fill:#6098f0;}.aa{fill:#c1444d;}.ab{fill:#ff666d;}.ac{fill:#78aaf4;}.ad{fill:#e3e5e5;}</style></defs><g transform="translate(0 -0.018)"><path class="a" d="M441.763,404.153C374.736,526.881,94.416,518.728,20.722,391.668-52.453,265.139,81.019,19.682,221.189,23.483,361.37,27.824,508.239,281.424,441.763,404.153Z" transform="translate(0 1.145)"/><path class="b" d="M414.9,424.482c-59.183,80.934-306.8,75.563-371.933-8.238-64.65-83.429,53.259-245.3,177.092-242.793C343.876,176.318,473.621,343.558,414.9,424.482Z" transform="translate(1.518 10.38)"/><path class="c" d="M573.8,320.575l-7.293,4.331L255.332,146.7,19.078,288.717,8.293,285.533v12.739a6.762,6.762,0,0,0,3.344,6.656L309.6,475.979a28.111,28.111,0,0,0,27.76.127L567.6,346.594a12.017,12.017,0,0,0,5.955-12.739Z" transform="translate(0.508 8.735)"/><path class="d" d="M573.8,320.575l-7.293,4.331L255.332,146.7,19.078,288.717,8.293,285.533v12.739a6.762,6.762,0,0,0,3.344,6.656L309.6,475.979a28.111,28.111,0,0,0,27.76.127L567.6,346.594a12.017,12.017,0,0,0,5.955-12.739Z" transform="translate(0.508 8.735)"/><path class="e" d="M11.689,290,309.651,461.1a28.089,28.089,0,0,0,27.75.127L567.646,331.711a12.07,12.07,0,0,0,0-20.966L255.331,131.87l-243.78,146.5a6.762,6.762,0,0,0,.127,11.677Z" transform="translate(0.509 7.821)"/><path class="f" d="M44.78,281.579,300.991,428.564,528.125,300.889,268.337,148.33Z" transform="translate(2.757 9.132)"/><ellipse class="f" cx="11.327" cy="6.178" rx="11.327" ry="6.178" transform="translate(433.887 374.851)"/><path class="g" d="M139.459,125.73l38.769-22.091a2.314,2.314,0,0,1,3.482,2.028v30.786a3.386,3.386,0,0,1-1.7,2.972L141.19,161.515a2.123,2.123,0,0,1-2.983-.807h0a2.123,2.123,0,0,1-.287-1.062V128.585a3.185,3.185,0,0,1,1.539-2.856Z" transform="translate(8.492 6.064)"/><path class="g" d="M145.89,153.775v10.616l10.191-17.251" transform="translate(8.983 8.762)"/><path class="h" d="M146.442,135.839l28.429-16.677a2.548,2.548,0,0,0-2.569-4.395l-28.429,16.667a2.55,2.55,0,0,0,2.569,4.406Z" transform="translate(8.781 6.75)"/><path class="h" d="M147.217,144.7l28.429-16.667a2.562,2.562,0,1,0-2.633-4.395h0l-28.376,16.667a2.548,2.548,0,0,0,2.569,4.395Z" transform="translate(8.834 7.292)"/><path class="i" d="M465.115,309.194l16.21-13.6c-3.408-6.369-3.62-8.238-8.938-13.185l-3.62,5.308L444,296.975C451.144,300.542,457.907,305.871,465.115,309.194Z" transform="translate(27.339 17.091)"/><path class="j" d="M459.38,274.23l3.726,17.134a3.821,3.821,0,0,0,2.123,2.643c2.176,1.062,6.667,2.123,15.181.616a3.9,3.9,0,0,0,3.185-2.994l3.8-17.4" transform="translate(28.286 16.587)"/><ellipse class="k" cx="14.002" cy="5.637" rx="14.002" ry="5.637" transform="translate(487.656 285.17)"/><path class="l" d="M465.6,265.671a4.554,4.554,0,0,1-1.7-1.476l-7.856-11.964c-3.652-5.563-4.979-45.425,4.586-45.881,7.6-.393,15.414,17.081,18.132,22.2a81.912,81.912,0,0,1,6.794,15.085c2.293,7.866-2.9,14.745-7.834,20.987C475.486,267.55,468.788,267.423,465.6,265.671Z" transform="translate(27.912 12.407)"/><path class="j" d="M469.755,272.641c1.062.722,2.123,1.486,3.11,2.272a144.247,144.247,0,0,0-7.431-52.41c-.658-1.943-3.747-1.062-3.089.945A141.317,141.317,0,0,1,469.755,272.641Z" transform="translate(28.463 13.335)"/><path class="l" d="M479.792,261.064a2.866,2.866,0,0,1-.181-1.369l1.062-9.055c.5-4.246,16.316-24.331,21.231-20.764,3.907,2.834.531,14.565-.234,18.164a52.286,52.286,0,0,1-2.856,10.191c-2.123,4.777-7.527,6.083-12.527,7.187C483.91,265.926,480.641,263.187,479.792,261.064Z" transform="translate(29.531 13.83)"/><path class="j" d="M494.473,240.267a172.871,172.871,0,0,0-16.783,37.155,20.107,20.107,0,0,1,2.3,1.465,171.638,171.638,0,0,1,16.8-37.378C497.69,240.023,495.344,238.834,494.473,240.267Z" transform="translate(29.414 14.456)"/><path class="i" d="M109.72,289.6l30.361-17.431L168.5,267.91l18.652,8.386L139.656,306.88Z" transform="translate(6.756 16.495)"/><path class="i" d="M179.98,329.264l30.34-17.431,25.414-6.263,24.1,7.558-49.926,33.418Z" transform="translate(11.082 18.814)"/><path class="i" d="M243.12,358.97l30.35-17.431,29.374-8.089,17.7,12.208-47.495,30.595Z" transform="translate(14.97 20.531)"/><path class="i" d="M293.245,210.83l-76.8,32.24,38.4,22.675,64.438-39.257-2.792-9.5Z" transform="translate(13.327 12.981)"/><path class="m" d="M245.336,302.427c-.552,0-2.3-.127-2.951-.127a13.662,13.662,0,0,1-6.911,2.335,12.155,12.155,0,0,1-8.493-1.943l-.52,4.586c-.287,3.535,4.321,2.834,6.072,2.749a51.954,51.954,0,0,0,10.064-1.539c1.327-.318,5.531-1,5.764-3.185S247.841,302.735,245.336,302.427Z" transform="translate(13.943 18.316)"/><path class="h" d="M237.322,290.658s-2.643,12.42-1.423,12.367,9.406.276,9.406.276a10.106,10.106,0,0,1-7.93,5.605c-6.093.892-10.435-5.308-10.435-5.308l2.41-15.5" transform="translate(13.974 17.441)"/><path class="n" d="M226,285.391l-1.815,9.883s2.845,2.919,12.41,2.58,0-17.474,0-17.474" transform="translate(13.804 16.966)"/><path class="o" d="M220.66,263.139s10.679-8.567,17.76-9.554,10.786,6.688,10.287,11.837-17.474,7.919-17.474,7.919" transform="translate(13.587 15.311)"/><path class="m" d="M254.7,309.408c-.552,0-2.3-.138-2.951-.138a13.662,13.662,0,0,1-6.911,2.335,12.155,12.155,0,0,1-8.546-1.943l-.531,4.533c-.287,3.535,4.321,2.834,6.072,2.749a51.952,51.952,0,0,0,10.064-1.539c1.327-.318,5.52-1,5.764-3.185S257.247,309.695,254.7,309.408Z" transform="translate(14.516 18.745)"/><path class="h" d="M246.682,297.628s-2.643,12.42-1.423,12.367,9.406.287,9.406.287a10.053,10.053,0,0,1-7.93,5.594c-6.093.892-10.435-5.308-10.435-5.308l2.42-15.5" transform="translate(14.55 17.87)"/><path class="m" d="M312.959,331.507c-.552,0-2.3-.127-2.951-.127a13.662,13.662,0,0,1-6.911,2.335,12.187,12.187,0,0,1-8.546-1.943l-.52,4.586c-.287,3.535,4.321,2.834,6.072,2.749a51.952,51.952,0,0,0,10.064-1.539c1.327-.318,5.531-1,5.764-3.185S315.464,331.815,312.959,331.507Z" transform="translate(18.104 20.106)"/><path class="h" d="M304.942,319.738s-2.643,12.42-1.422,12.367,9.406.276,9.406.276a10.1,10.1,0,0,1-7.93,5.605c-6.093.892-10.435-5.308-10.435-5.308l2.41-15.5" transform="translate(18.137 19.232)"/><path class="m" d="M322.319,338.488c-.552,0-2.3-.138-2.951-.138a13.663,13.663,0,0,1-6.911,2.335,12.187,12.187,0,0,1-8.546-1.943l-.531,4.533c-.287,3.535,4.321,2.834,6.072,2.749a51.952,51.952,0,0,0,10.064-1.539c1.327-.318,5.52-1,5.764-3.185S324.846,338.775,322.319,338.488Z" transform="translate(18.68 20.535)"/><path class="h" d="M314.3,326.708s-2.643,12.42-1.423,12.367,9.406.287,9.406.287a10.053,10.053,0,0,1-7.93,5.594c-6.093.892-10.435-5.308-10.435-5.308l2.42-15.5" transform="translate(18.714 19.661)"/><path class="o" d="M221.3,263.559s10.679-8.556,17.76-9.554,10.786,6.688,10.276,11.826-17.463,7.93-17.463,7.93" transform="translate(13.626 15.336)"/><path class="n" d="M227.4,266.039c1.327-1.316,19.512-9.735,25.892-5.881s5.987,6.73,5.18,11.433S251.5,301.7,251.5,301.7a23.121,23.121,0,0,1-14.544.679l1.783-18.832L214.6,270.339" transform="translate(13.214 15.659)"/><path class="e" d="M227.315,264.673l5.733,4.3L257.475,256.4,241.148,244.79,218.26,257.762Z" transform="translate(13.439 15.072)"/><path class="m" d="M170.487,259.62l-1.433,6.6a31.915,31.915,0,0,1,5.775-.594c1.476.2,3.376,2.834,1.518,4.618s-4.989,1.614-8.153,2.346-3.641.892-5.669.318S160.2,269.6,160.2,269.6l1.582-11.529" transform="translate(9.864 15.592)"/><path class="p" d="M160.1,253.761l-1.8,9.883s2.834,2.919,12.4,2.58,0-17.474,0-17.474" transform="translate(9.747 15.018)"/><ellipse class="q" cx="13.62" cy="5.064" rx="13.62" ry="5.064" transform="translate(143.854 286.741)"/><path class="q" d="M146.17,253.56l.531,20.382h4.066V253.56" transform="translate(9 15.612)"/><path class="m" d="M180.968,264.719l-1.454,6.614a30.113,30.113,0,0,1,5.775-.594c1.486.191,3.376,2.824,1.529,4.607s-5,1.614-8.153,2.357-3.652.881-5.669.318-2.335-3.323-2.335-3.323l1.592-11.518" transform="translate(10.508 15.907)"/><path class="r" d="M266.1,129.845l6.783-12.293,3.917-6.316-15.127-7.346-9.692,19.9Z" transform="translate(15.516 6.396)"/><path class="s" d="M280.952,127.162l-4.31-4.766a5.926,5.926,0,0,1-.934-1.062,4.661,4.661,0,0,1-.255-2.017,12.843,12.843,0,0,0-.563-2.9,1.168,1.168,0,0,0-1.465-.786h0a1.2,1.2,0,0,0-.828,1.062v1.847l-1.062-.945c-1.412,2.569-2.866,5.117-4.416,7.611h2.569a30.627,30.627,0,0,1,8.057,6.953,1.062,1.062,0,0,0,1.5.127l.053-.053a1.061,1.061,0,0,0,.3-.456,2.047,2.047,0,0,0,.361-.117h0a1.221,1.221,0,0,0,.425-1.6h0a.945.945,0,0,0-.584-.552c-.244-.276-.467-.563-.69-.849l.149.159C280.3,129.932,281.961,128.276,280.952,127.162Z" transform="translate(16.448 6.818)"/><path class="t" d="M271.972,123.276a5.074,5.074,0,0,1-.881-2.24,3.652,3.652,0,0,1,.87-2.123c.2-.3-.265-.552-.456-.265a4.13,4.13,0,0,0-.945,2.442,5.584,5.584,0,0,0,.966,2.495.257.257,0,0,0,.446-.255Z" transform="translate(16.66 7)"/><path class="i" d="M284.78,53.714v93.62a8.344,8.344,0,0,0,4.246,7.261l152.357,86.157a8.344,8.344,0,0,0,12.42-7.261V144.659a8.365,8.365,0,0,0-4.076-7.144L297.392,46.538a8.333,8.333,0,0,0-11.423,2.909h0A8.206,8.206,0,0,0,284.78,53.714Z" transform="translate(17.535 2.495)"/><path class="s" d="M344.622,120.537l-1.985.51a2.272,2.272,0,0,0,.871-1.391,1.013,1.013,0,0,0-1.465-1.125q-2.643,1.327-5.372,2.643l.106-.4a6.222,6.222,0,0,0,.318-2.643c-.382-1.507-1.741-.669-2.293.52-.754,1.582-.913,3.291-2.346,4.544a6.889,6.889,0,0,1-2.771,1.125c-1.062.287-2.006.552-3.015.817a1.008,1.008,0,0,0,0,1.921.987.987,0,0,0-.287,1.348.913.913,0,0,0,.382.34c-.446.722.064,1.9,1.062,1.507a38.77,38.77,0,0,1,7.293-2.123c2.463-.127,4.9-.34,7.346-.626,1.253-.138,1.327-2.123,0-2h-.18l2.208-.361c1.062-.191.86-2.123-.265-1.964h-.3l-.732.106,1.062-.34c.648-.223,1.242-.372,1.571-1.062a1,1,0,0,0-.52-1.316h0a.934.934,0,0,0-.69-.032Z" transform="translate(20.071 6.925)"/><path class="t" d="M336.16,121.947a.234.234,0,0,0-.308-.1.223.223,0,0,0-.117.212,3.493,3.493,0,0,1-1.061,3.535c-.212.18.106.5.318.318a3.981,3.981,0,0,0,1.168-3.97Z" transform="translate(20.603 7.203)"/><path class="t" d="M342.076,120.52c-1.614.425-3.185.924-4.777,1.486-.265.085-.149.531.117.425,1.571-.563,3.185-1.062,4.788-1.486a.212.212,0,0,0,.1-.287h0A.234.234,0,0,0,342.076,120.52Z" transform="translate(20.76 7.123)"/><path class="t" d="M343.194,122.66l-5.085.786c-.276,0-.159.478.117.425l5.085-.786C343.544,123.021,343.428,122.607,343.194,122.66Z" transform="translate(20.809 7.254)"/><path class="t" d="M342.251,124.79c-1.359.1-2.728.149-4.108.191a.223.223,0,1,0,0,.446c1.38,0,2.749-.064,4.108-.18C342.517,125.257,342.517,124.779,342.251,124.79Z" transform="translate(20.807 7.386)"/><path class="u" d="M54.32,142.247V243.022l24.289-13.153V128.34Z" transform="translate(3.345 7.901)"/><path class="u" d="M83.46,118.038V218.813l24.289-13.164V104.11Z" transform="translate(5.139 6.409)"/><path class="v" d="M173.891,226.3q-6.115,1.327-12.335,2.123a.69.69,0,0,0-.478.255c-.478-1.444-.881-2.9-1.221-4.374-.18-.849-1.476-.488-1.316.35a47.378,47.378,0,0,0,3.376,9.756c.372.775,1.529.106,1.168-.679-.626-1.316-1.168-2.633-1.656-3.96h.1q6.369-.743,12.739-2.123a.674.674,0,1,0-.372-1.3Z" transform="translate(9.761 13.483)"/><path class="v" d="M162.883,235.08a18.047,18.047,0,0,1-4.14,4.745c-.669.541.287,1.486.955.945a19.109,19.109,0,0,0,4.352-5.011.69.69,0,0,0-.244-.924.658.658,0,0,0-.913.234Z" transform="translate(9.761 14.156)"/><path class="w" d="M283.4,200.929s-.127,6.5-.892,7.516-7.59,4.639-7.93,6.3.828,3.96,4.087,3.185,11.072-5.966,11.072-5.966V197.84" transform="translate(16.904 11.884)"/><path class="w" d="M307.532,207.8l.839,7.059s-2.994,10.871-1.8,12.2,5.5,2.749,7.176,0-.711-12.909-.711-12.909l-.117-7.654" transform="translate(18.859 12.416)"/><path class="x" d="M293.371,137.415s-8.493,34.363-8.832,39.639-2.909,30.871-2.909,30.871,8.036,3.567,13.45,1.762l4.246-32.272,4.735-33.8S295.388,134.974,293.371,137.415Z" transform="translate(17.341 8.136)"/><path class="x" d="M308.6,145.063c5.977,25.319,6.614,44.438,9.713,66.571,0,0-12.93,4.724-15.786.149-1.932-22.558-3.493-45.181-4.246-67.8Z" transform="translate(18.366 8.567)"/><path class="x" d="M333.931,119.867c-5.435,2.059-11.9,3.96-16.327,3.355a77.155,77.155,0,0,1-16.306-4.045c-.711-.234-8.44-3.185-11.306-.648s-2.123,10.849-2.123,10.849L277.445,120.4c-3.864,1.38-5.4,5.382-5.775,9.363l.4.414c.743.881,1.507,1.762,2.272,2.643,3.418,3.843,7.346,8.28,12.378,9.958a8.928,8.928,0,0,0,6.03-.372c1.5-.552,3.684-2.378,5.308-1.783a2.909,2.909,0,0,0,1.316.414c1.21-.149,2.813-2.059,3.97-2.643,3.132-1.624,6.8-1.879,10.255-2.049a75.15,75.15,0,0,0,11.21-1.242c1.062-.223,12.643-3.185,12.888-2.643a40.233,40.233,0,0,1-3.769-12.59Z" transform="translate(16.728 6.937)"/><path class="s" d="M292.016,112.721c-.764,3.631-.117,8.631,3.758,9.257,4.989.743,6.231-2.643,5.966-6.837-.212-3.312-1.943-8.493-6.369-7a4.554,4.554,0,0,0-2.505,2.3,9.775,9.775,0,0,0-.849,2.272Z" transform="translate(17.963 6.344)"/><path class="m" d="M291.91,113.809a5.711,5.711,0,0,1-3.089-5.541c.2-2.229,2.357-5.064,4.862-3.97,1.688.711,1.221.764,1.221.764a3.514,3.514,0,0,1,3.291-1.189c2.367.212,2.781,1.656,2.781,1.656s2.643.9,3.4,2.643c.807,1.953-1.062,7.781-1.911,9.416s-1.38-1.688-1.688-3.025a3.323,3.323,0,0,0-1.985-2.431c-1.454-.393-2.123.9-3.323,1.444a4.14,4.14,0,0,1-3.556.234Z" transform="translate(17.783 6.094)"/><path class="x" d="M301.273,147.416a21.231,21.231,0,0,0,7.856-1.454l.531-16.582-19.989,9.374s.754,3.97,1.592,7.686A28.661,28.661,0,0,0,301.273,147.416Z" transform="translate(17.836 7.668)"/><path class="p" d="M154.78,231.559s10.669-8.567,17.76-9.554,10.775,6.688,10.276,11.837-17.473,7.919-17.473,7.919" transform="translate(9.531 13.366)"/><path class="y" d="M160.868,234.039c1.316-1.327,19.5-9.745,25.881-5.881s5.987,6.72,5.18,11.433-6.9,30.032-6.9,30.032a23.015,23.015,0,0,1-14.533.69l1.794-18.832L148.14,238.265" transform="translate(9.122 13.688)"/><path class="h" d="M148.517,205.11c.966.711,9.246,1.7,10.955,5.51s4.363,23.482,4.363,23.482-4.968,7.431-13.578,4.766c-2.548-.775-15.775-24.958-16.125-27.474C133.219,204.866,148.517,205.11,148.517,205.11Z" transform="translate(8.257 12.331)"/><path class="z" d="M132.456,247.433a20.965,20.965,0,0,1-1.062-3.068c-2.028-7.93-3.355-37.8,10.053-36.592,14.724,1.327,9.756,38.217,24.671,37.07s21.04,2.749,14.936,8.493C168.931,264.949,139.94,265.193,132.456,247.433Z" transform="translate(8.012 12.493)"/><path class="s" d="M151.391,193.375c.117.711,1.316,10.754-1.614,13.015s-9.65-3.079-9.82-5.732-2.42-8.185.425-9.554S150.563,188.365,151.391,193.375Z" transform="translate(8.556 11.391)"/><path class="m" d="M151.8,193.637s2.495-1.932,2.93-3.673-1.72-3-3.822-3-3.885.541-5.69-.541a6.486,6.486,0,0,0-6.369,0c-1.709,1.168-2,3.97-3.185,5.4s-3.344,1.6-3.291,4.246,3.96,2.962,4.246,4.756,1.242,4.427,3.662,4.873,5.732.5,6.009.149-1.518-6.369.149-6.762S151.9,197.852,151.8,193.637Z" transform="translate(8.151 11.129)"/><path class="s" d="M183.4,191.888a4.883,4.883,0,0,0-1.221-3.185.881.881,0,0,0-.276-.2,2.824,2.824,0,0,0-1.316-2.58.913.913,0,0,0-.478,0,.754.754,0,0,0-.86.605.457.457,0,0,0,0,.17v1.189a1.327,1.327,0,0,0-.541-.637,1.062,1.062,0,0,0-1.062,0,.69.69,0,0,0-.594.754l.2,5.032c-.255-.934-.8-2.771-2.123-1.8-1.062.754-.3,2.824-.117,3.8a36.912,36.912,0,0,0,1.4,5.871.828.828,0,0,0,.276.382,5.841,5.841,0,0,1-.159.605c-.127.478-.255,1.008-.414,1.539a5.085,5.085,0,0,1-1.306,2.431c-.775.669.361,1.8,1.136,1.136l.106-.106h0c-.265.86,1.062,1.454,1.465.616l.159-.3a.859.859,0,0,0,.255.18c0,.17-.138.34-.191.52-.318.987,1.242,1.412,1.55.414h0a.732.732,0,0,0,.977.34h0a.648.648,0,0,0,.318-.329c.191-.393.138.945.3.541.4.18-.446-1.316-.191-1.783,1.062-1.9,3.5-3.8,3.439-9.958C184.221,195.561,185.378,192.546,183.4,191.888Z" transform="translate(10.748 11.148)"/><path class="aa" d="M177.411,188.093a.276.276,0,0,0-.541,0q.138,3.185.435,6.369c0,.34.573.34.541,0C177.666,192.371,177.518,190.227,177.411,188.093Z" transform="translate(10.891 11.27)"/><path class="aa" d="M179.4,186.585a.265.265,0,0,0-.265-.265.276.276,0,0,0-.276.265l.212,8.62a.276.276,0,0,0,.276.265.265.265,0,0,0,.265-.265h0Z" transform="translate(11.013 11.174)"/><path class="aa" d="M181.106,188.8,181,195.4a.276.276,0,0,0,.276.265.265.265,0,0,0,.265-.265l.159-6.6a.265.265,0,0,0-.255-.276h0a.276.276,0,0,0-.34.276Z" transform="translate(11.145 11.309)"/><path class="aa" d="M182.695,191.723c-.074,1.624-.223,3.185-.425,4.851a.276.276,0,0,0,.541,0c.212-1.614.361-3.185.425-4.851a.276.276,0,0,0-.541,0Z" transform="translate(11.223 11.493)"/><path class="h" d="M203.82,251.449s-.382-14.384,6.168-14.629,15.138,4.48,15.595,12.113,1.783,21.858,1.783,24.533-4.8,12.537-4.8,12.537" transform="translate(12.55 14.283)"/><path class="s" d="M310.057,272.654l1.231-2.4a1.316,1.316,0,0,0-.764-1.7,1.369,1.369,0,0,0-.743-.053,7.429,7.429,0,0,0,.425-1.985,1.221,1.221,0,0,0-1.274-1.168,1.2,1.2,0,0,0-.977.563l-2.038,3.96.934-2.58c.531-1.465-1.794-2.123-2.325-.637l-1.6,4.352-.244-1.136c-.234-1.062-.626-2.325-1.964-2.123a1.316,1.316,0,0,0-1.2,1.2,5.669,5.669,0,0,0,.52,2.643c.382.913,1.21,2.123.817,3.132l-1.974,4.671a1.2,1.2,0,0,0,.488,1.624,1.274,1.274,0,0,0,.626.149,1.242,1.242,0,0,0,1.539.839.765.765,0,0,0,.255-.106,1.168,1.168,0,0,0,.849,0,1.062,1.062,0,0,0,1.423.1,1.21,1.21,0,0,0,1.656.414,1.157,1.157,0,0,0,.4-.414c1.529-2.643,3.758-4.788,5.074-7.558a1.327,1.327,0,0,0-.807-1.677h0Z" transform="translate(18.394 16.04)"/><path class="n" d="M293.555,319.431l-1.815,9.883s2.845,2.919,12.41,2.58,0-17.474,0-17.474" transform="translate(17.964 19.062)"/><ellipse class="q" cx="13.62" cy="5.064" rx="13.62" ry="5.064" transform="translate(285.468 356.476)"/><path class="q" d="M279.57,319.25l.531,20.361h4.055V319.25" transform="translate(17.214 19.657)"/><path class="v" d="M307.312,291.974q-6.136,1.327-12.346,2.123a.637.637,0,0,0-.478.244,44.435,44.435,0,0,1-1.21-4.374c-.191-.839-1.486-.488-1.327.361a46.487,46.487,0,0,0,3.386,9.745c.372.786,1.518.106,1.157-.669-.616-1.316-1.157-2.643-1.645-3.96h.1q6.369-.764,12.739-2.123a.7.7,0,0,0-.372-1.348Z" transform="translate(17.976 17.527)"/><path class="v" d="M296.253,300.747a17.846,17.846,0,0,1-4.13,4.745c-.679.541.276,1.5.945.955a19.108,19.108,0,0,0,4.352-5.011.679.679,0,0,0-1.168-.69Z" transform="translate(17.973 18.202)"/><path class="n" d="M288.17,297.179s10.679-8.556,17.76-9.554,10.786,6.688,10.276,11.826-17.463,7.93-17.463,7.93" transform="translate(17.744 17.407)"/><path class="n" d="M294.273,299.709c1.327-1.316,19.512-9.735,25.892-5.881s5.987,6.73,5.181,11.433-6.975,30.053-6.975,30.053a23.047,23.047,0,0,1-14.544.679l1.783-18.822-24.14-13.217" transform="translate(17.331 17.732)"/><path class="h" d="M281.917,270.79c.966.722,9.257,1.709,10.955,5.52s4.363,23.482,4.363,23.482-4.968,7.431-13.567,4.766c-2.548-.786-15.775-24.968-16.136-27.474C266.619,270.546,281.917,270.79,281.917,270.79Z" transform="translate(16.471 16.375)"/><path class="z" d="M265.855,313.112a22.147,22.147,0,0,1-1.062-3.057c-2.017-7.93-3.355-37.813,10.064-36.592,14.713,1.316,9.745,38.217,24.671,37.06s21.03,2.749,14.926,8.546C302.31,330.628,273.339,330.946,265.855,313.112Z" transform="translate(16.226 16.538)"/><path class="s" d="M286.67,261.284c.1.605,1.168,9.161-1.316,11.083s-8.217-2.643-8.355-4.873-2.059-6.964.361-8.142S286,257.059,286.67,261.284Z" transform="translate(17.004 15.605)"/><path class="m" d="M286.809,275.716c-1.062-.732-2.643-1.316-2.251-2.824.287-1.316,1.582-2.2,1.624-3.546a4.936,4.936,0,0,0-1.391-3.514c-.573-.573-1.327-.913-.881-1.837a3.641,3.641,0,0,1,1.412-1.423l2.771.17A6.263,6.263,0,0,0,284.909,255a10.064,10.064,0,0,0-11.231,1.369,13.469,13.469,0,0,0-1.858,2.643,10.309,10.309,0,0,1-2.42,3.185,4.246,4.246,0,0,0-2.059,3.079,5.594,5.594,0,0,0,.934,3.493c.7,1.316-.425,2.251-1.327,3.185a5.669,5.669,0,0,0-1.837,3.429c-.127,2.866,2.643,4.183,5.042,4.618s4.48.754,6.72,1.136c2.856.488,5.648,1.518,8.567.733a4.926,4.926,0,0,0,2.038-1.178,3.11,3.11,0,0,0,0-4.395l-.234-.2A4.875,4.875,0,0,0,286.809,275.716Z" transform="translate(16.324 15.335)"/><path class="s" d="M244.584,251l.127-.064a.947.947,0,1,0-.955-1.635h0l-.223.138a.945.945,0,0,0-.934-.955h0a.967.967,0,0,0-.456.106c-1.062.531-2.123,1.062-3.185,1.645l.414-.51c.616-.775-.159-2.123-1.136-1.476-1.285.8-2.548,1.635-3.79,2.505a1,1,0,0,0-.234,1.391h0l-.2.149a3.5,3.5,0,0,0-.18,2.123.9.9,0,0,0,0,1.274.881.881,0,0,0,.425.255l.074.1-1.062.382c-1.136.393-.648,2.208.5,1.815l5.7-2a8.992,8.992,0,0,0,3.96-2.123.924.924,0,0,0,.159-1.062,5.584,5.584,0,0,0,1.146-.775.849.849,0,0,0,.138-1.189A.679.679,0,0,0,244.584,251Z" transform="translate(14.324 14.977)"/><path class="h" d="M221.89,254.453s10.244-4.161,13.291-5.053c0,0,3.185,2.219,2.293,8.047,0,0-9.257,9.437-14.958,12.272" transform="translate(13.663 15.058)"/><path class="ab" d="M214.611,235.032a.966.966,0,0,0-.064-1.242,3.917,3.917,0,0,0-1.592-1.316,1.433,1.433,0,0,0-1.794.934v.1a2.4,2.4,0,0,0,2.123,2.665h0a2.9,2.9,0,0,0,.743,0,.966.966,0,0,0,.669-1.147Z" transform="translate(13.001 14.012)"/><ellipse class="q" cx="13.62" cy="5.064" rx="13.62" ry="5.064" transform="translate(215.468 324.384)"/><path class="q" d="M213.65,289.01l.531,20.372h4.055V289.01" transform="translate(13.155 17.795)"/><path class="z" d="M198.4,280.793a20.967,20.967,0,0,1-1.062-3.068c-2.028-7.93-3.365-37.8,10.053-36.592,14.724,1.327,9.756,38.217,24.671,37.07s21.04,2.749,14.926,8.493C234.9,298.319,205.827,298.563,198.4,280.793Z" transform="translate(12.072 14.547)"/><path class="s" d="M216.937,224.774s4.9,10.34,1.677,13.376c-2.282,2.123-6.8,2.006-9.161-1.943S212.458,222.906,216.937,224.774Z" transform="translate(12.862 13.527)"/><path class="m" d="M212.439,234.791a15,15,0,0,0,4.788-9.13c.531-5.52-11.677-3.567-13.662,1.783s.955,13.121,9.161,12.028Z" transform="translate(12.498 13.393)"/><path class="m" d="M207.41,234.68c-.839.722-22.219,22.558-11.136,29.883,9.246,6.1,12.739-25.892,12.739-28.333" transform="translate(11.89 14.152)"/><path class="ab" d="M464.086,265a3.077,3.077,0,0,0-.276,1.062Z" transform="translate(28.559 16.019)"/><circle class="ac" cx="29.767" cy="29.767" r="29.767" transform="translate(70.977 24.585)"/><circle class="j" cx="15.711" cy="15.711" r="15.711" transform="translate(0 365.361)"/><circle class="r" cx="21.953" cy="21.953" r="21.953" transform="translate(557.847 201.114)"/><path class="i" d="M383.693,472.694l-28.418,6.592A29.175,29.175,0,1,1,412.1,466.038Z" transform="translate(21.829 27.009)"/><path class="q" d="M124.777,14.546,114.48,4.228a14.6,14.6,0,0,1,20.605,20.658Z" transform="translate(7.049 -0.28)"/><circle class="g" cx="5.828" cy="5.828" r="5.828" transform="translate(508.239 187.866)"/><path class="s" d="M177.355,202.437s2.93-1.794,5.924,1.667c0,0-5.637,17.888-8.057,18.992s-21.231-4.5-21.231-4.5l1.72-9.31,15.86,6.518,2.622-6.369C175.827,205.378,177.355,202.437,177.355,202.437Z" transform="translate(9.482 12.138)"/><path class="h" d="M155.858,207.72l7.633,4.087-.849,10.637-9.161-3.057Z" transform="translate(9.45 12.789)"/><path class="ad" d="M153.537,214.05s0,4.374,2.357,6.03a24.213,24.213,0,0,1,4.469,4.246l2.335,9.183s-3.4,4.374-5.127,4.246c0,0-3.7-9.841-4.7-14.268S153.537,214.05,153.537,214.05Z" transform="translate(9.393 12.882)"/><path class="ad" d="M139,206.027l.924-1.5s7.144.467,7.686.382a12.547,12.547,0,0,1,2.983.977l-2.707,1.062Z" transform="translate(8.559 12.296)"/><path class="ad" d="M221.45,269.544l4.512-3,.318,5.8-.892,2.781A12.739,12.739,0,0,1,221.45,269.544Z" transform="translate(13.636 16.114)"/><path class="ad" d="M207.84,238.944l5.34.817,4.713-1.348-.807-.393-9.13-.18Z" transform="translate(12.798 14.644)"/><path class="ad" d="M208.88,241.64s6.03,1.7,6.369,3.057a40.928,40.928,0,0,1,.446,5.5S213.965,244.464,208.88,241.64Z" transform="translate(12.862 14.581)"/><path class="ad" d="M231.575,250.39s3.769,7.293,3.185,8.493-.34,1.7-.34,1.7a29.311,29.311,0,0,0-3.62-9.894Z" transform="translate(14.211 15.119)"/><path class="s" d="M301.13,275.6a6.868,6.868,0,0,1,7.516,3.376s-7.972,23.111-12.622,19.108-12.134-16.1-12.134-16.1,2.431-7.558,7.972-5.934l6.178,12.856s-5.308,1.614-1.115-5.828Z" transform="translate(17.48 16.661)"/><path class="h" d="M283.89,281.946l5.637,8.4s1.009-6.1,6.231-7.357l-3.9-6.964S286.714,273.4,283.89,281.946Z" transform="translate(17.48 16.674)"/><path class="ad" d="M284.78,287.54s3.981,13.482,4.989,13.949a1.73,1.73,0,0,1,.86,1.72s5.743-3,5.541-4.448-8.376-10-8.376-10S288.007,291.691,284.78,287.54Z" transform="translate(17.535 17.407)"/><path class="ad" d="M283.434,271.852l3.1-1.062.8,1.688-2.463,2.4S282.978,272.849,283.434,271.852Z" transform="translate(17.448 16.375)"/></g></svg>